<svg width="104" height="48" viewBox="0 0 104 48" fill="none" xmlns="http://www.w3.org/2000/svg">
<path d="M45 35C45 37.209 43.209 39 41 39H7C4.791 39 3 37.209 3 35V13C3 10.791 4.791 9 7 9H41C43.209 9 45 10.791 45 13V35Z" fill="#3F51B5"/>
<path d="M30 14C27.3478 14 24.8043 15.0536 22.9289 16.9289C21.0536 18.8043 20 21.3478 20 24C20 26.6522 21.0536 29.1957 22.9289 31.0711C24.8043 32.9464 27.3478 34 30 34C32.6522 34 35.1957 32.9464 37.0711 31.0711C38.9464 29.1957 40 26.6522 40 24C40 21.3478 38.9464 18.8043 37.0711 16.9289C35.1957 15.0536 32.6522 14 30 14Z" fill="#FFC107"/>
<path d="M22.014 30C21.55 29.383 21.151 28.716 20.838 28H26.163C26.441 27.364 26.659 26.696 26.8 26H20.202C20.07 25.354 20 24.686 20 24H27C27 23.314 26.93 22.646 26.799 22H20.201C20.343 21.304 20.56 20.636 20.838 20H26.163C25.85 19.284 25.452 18.617 24.987 18H22.014C22.451 17.42 22.944 16.878 23.495 16.405C21.747 14.909 19.481 14 17 14C11.477 14 7 18.477 7 24C7 29.523 11.477 34 17 34C20.269 34 23.162 32.425 24.986 30H22.014Z" fill="#FF3D00"/>
<path d="M61.25 9C59.5932 9 58.25 10.3432 58.25 12V36C58.25 37.6567 59.5932 39 61.25 39H98.75C100.407 39 101.75 37.6567 101.75 36V12C101.75 10.3432 100.407 9 98.75 9H61.25ZM85.165 18.5625C86.2113 18.5625 87.0525 18.7898 87.7065 19.0283L87.229 21.2549C86.0133 20.6946 84.9398 20.7337 84.5513 20.7847C83.766 20.8867 83.4082 21.2878 83.3984 21.6636C83.3722 22.9018 87.2154 23.0547 87.2041 25.8252C87.1936 28.0077 85.3286 29.4155 82.4771 29.4155C81.2621 29.4043 80.0895 29.1492 79.4565 28.8574L79.9487 26.5576C80.5795 26.8524 81.3713 27.2422 82.7363 27.2212C83.5186 27.2092 84.3541 26.8986 84.3623 26.1943C84.3661 25.7338 84.0121 25.4037 82.9546 24.8892C81.9256 24.3874 80.5584 23.544 80.5771 22.0327C80.5921 19.9905 82.4808 18.5625 85.165 18.5625ZM63.2627 18.7544H67.8828C68.4708 18.7544 69.001 19.1457 69.1353 19.8237L70.2778 25.8984L73.105 18.7544H75.957L71.5566 29.2515H68.687L66.522 20.874C66.3907 20.358 66.2772 20.1701 65.8774 19.9526C65.2242 19.5971 64.1462 19.2653 63.1982 19.0591L63.2627 18.7544ZM77.1216 18.7544H79.8359L77.5903 29.2515H74.876L77.1216 18.7544ZM92.293 18.7544H94.6118L96.8032 29.2515H94.291L93.9614 27.6841H90.4795L89.9126 29.2515H87.0635L91.1372 19.5249C91.333 19.0584 91.7717 18.7544 92.293 18.7544ZM92.6914 21.5889L91.2603 25.5322H93.5132L92.6914 21.5889Z" fill="#0063BE"/>
</svg>
