<svg width="41" height="41" viewBox="0 0 41 41" fill="none" xmlns="http://www.w3.org/2000/svg">
<path d="M32.374 18.4369L27.74 27.4479L19.116 23.9079L15.126 12.3879L28.577 13.0949L32.374 18.4369Z" fill="#9ACC6E"/>
<path d="M30.1201 24.123C31.105 24.123 32.0803 24.317 32.9902 24.694C33.9002 25.0709 34.727 25.6233 35.4234 26.3197C36.1199 27.0162 36.6723 27.843 37.0492 28.7529C37.4261 29.6629 37.6201 30.6381 37.6201 31.623C37.6201 32.608 37.4261 33.5832 37.0492 34.4932C36.6723 35.4031 36.1199 36.2299 35.4234 36.9263C34.727 37.6228 33.9002 38.1752 32.9902 38.5521C32.0803 38.9291 31.105 39.123 30.1201 39.123C29.1352 39.123 28.1599 38.9291 27.25 38.5521C26.34 38.1752 25.5133 37.6228 24.8168 36.9263C24.1204 36.2299 23.5679 35.4031 23.191 34.4932C22.8141 33.5832 22.6201 32.608 22.6201 31.623C22.6201 30.6381 22.8141 29.6629 23.191 28.7529C23.5679 27.843 24.1204 27.0162 24.8168 26.3197C25.5133 25.6233 26.34 25.0709 27.25 24.694C28.1599 24.317 29.1352 24.123 30.1201 24.123Z" fill="#9ACC6E"/>
<path d="M30.1201 24.623C26.2601 24.623 23.1201 27.763 23.1201 31.623C23.1201 35.483 26.2601 38.623 30.1201 38.623C33.9801 38.623 37.1201 35.483 37.1201 31.623C37.1201 27.763 33.9801 24.623 30.1201 24.623ZM30.1201 23.623C34.5381 23.623 38.1201 27.205 38.1201 31.623C38.1201 36.041 34.5381 39.623 30.1201 39.623C25.7021 39.623 22.1201 36.041 22.1201 31.623C22.1201 27.205 25.7021 23.623 30.1201 23.623Z" fill="#4E7525"/>
<path d="M31.1201 27.624H29.1201V35.623H31.1201V27.624Z" fill="#4E7525"/>
<path d="M27.7179 32.1811C29.3539 32.1811 30.4909 31.4811 31.0989 30.0991C32.2579 27.4641 29.9559 25.4111 29.4549 25.1171L19.8069 19.4101L19.8139 15.5551L20.4719 15.7751C20.4799 15.7771 21.3299 16.0571 22.3509 16.0571C23.1359 16.0571 23.8059 15.8961 24.3409 15.5781L24.8709 15.2631L25.0689 15.8471C25.9439 18.4181 28.7289 19.5131 28.7569 19.5241L29.2649 19.7181L27.7129 22.9251L29.8289 24.1431C29.9949 24.1261 30.1619 24.1191 30.3299 24.1191C31.7659 24.1191 33.3479 24.7031 34.7419 25.7361L36.5299 22.8721C37.8659 20.6971 37.7649 17.9511 36.2699 15.8791L31.8559 9.75805C30.8099 8.30705 29.2869 7.23705 27.5669 6.74706L11.6669 2.20605L2.90488 15.1771C4.11788 16.5351 4.71688 18.2041 5.29688 19.8231C6.22788 22.4191 7.10688 24.8721 10.3589 26.2541C13.3289 27.5161 23.8209 31.2731 25.1689 31.7261C25.7909 31.9311 26.7389 32.1811 27.7179 32.1811Z" fill="white"/>
<path d="M11.8783 2.78405L3.53228 15.139C4.64029 16.505 5.21228 18.101 5.76828 19.651C6.66128 22.141 7.50428 24.494 10.5553 25.79C13.5713 27.072 23.9363 30.78 25.3293 31.248C25.9163 31.445 26.8073 31.681 27.7183 31.681C29.1573 31.681 30.1143 31.098 30.6423 29.897C31.6403 27.628 29.6163 25.791 29.2023 25.548C28.6683 25.234 27.7193 24.673 26.6223 24.025L26.5533 23.984C23.6633 22.275 19.7983 19.986 19.7983 19.986L19.3073 19.695V19.123L19.3123 16.245L19.3183 14.865L20.6293 15.298C20.6373 15.301 21.4183 15.555 22.3513 15.555C23.0453 15.555 23.6283 15.417 24.0863 15.146L25.1463 14.516L25.5433 15.683C26.3403 18.023 28.9113 19.044 28.9343 19.053L29.9553 19.441L29.4793 20.424L28.3663 22.721L29.9433 23.629C30.0703 23.62 30.1993 23.616 30.3283 23.616C31.7183 23.616 33.2273 24.12 34.5953 25.022L36.1003 22.609C37.3323 20.605 37.2393 18.076 35.8633 16.168L31.4503 10.047C30.4693 8.68705 29.0413 7.68505 27.4293 7.22405L11.8783 2.78405ZM11.4553 1.62305L27.7043 6.26305C29.5393 6.78705 31.1453 7.91405 32.2613 9.46305L36.6753 15.584C38.2833 17.814 38.3933 20.792 36.9533 23.134L34.8703 26.472C33.5323 25.352 31.8653 24.616 30.3283 24.616C30.1233 24.616 29.9213 24.629 29.7223 24.656L27.1293 23.164C27.1063 23.15 27.0833 23.137 27.0603 23.123L28.5783 19.988C28.5783 19.988 25.5613 18.842 24.5963 16.005C23.8873 16.427 23.0753 16.555 22.3513 16.555C21.2273 16.555 20.3123 16.247 20.3123 16.247L20.3073 19.125C20.3073 19.125 24.1713 21.414 27.0613 23.123L27.1313 23.164C28.2273 23.812 29.1753 24.372 29.7093 24.686C30.5363 25.172 32.7973 27.484 31.5573 30.3C30.7443 32.147 29.2093 32.681 27.7183 32.681C26.7193 32.681 25.7403 32.441 25.0103 32.196C23.5023 31.689 13.1333 27.972 10.1643 26.71C4.42229 24.27 5.60128 18.56 2.26728 15.225L11.4553 1.62305Z" fill="#4E7525"/>
<path d="M26.0972 30.079L27.7472 26.271C28.0052 26.383 28.4582 26.627 28.4582 26.627C29.5102 27.083 29.9932 28.305 29.5372 29.356C29.0812 30.408 27.8592 30.891 26.8082 30.435C26.8082 30.435 26.3552 30.191 26.0972 30.079Z" fill="#9ACC6E"/>
<path d="M27.9281 23.623L28.4731 22.502L30.1201 23.623C29.4881 23.623 28.8761 23.704 28.2861 23.843L27.9281 23.623Z" fill="white"/>
</svg>
