<svg width="44" height="45" viewBox="0 0 44 45" fill="none" xmlns="http://www.w3.org/2000/svg">
<path d="M0 22.5C0 10.3497 9.84974 0.5 22 0.5C34.1503 0.5 44 10.3497 44 22.5C44 34.6503 34.1503 44.5 22 44.5C9.84974 44.5 0 34.6503 0 22.5Z" fill="#F2F9ED"/>
<path d="M23.875 14.375C20.4302 14.375 17.625 17.1802 17.625 20.625C17.625 22.1216 18.1499 23.4937 19.0312 24.5703L14.0508 29.5508L14.9492 30.4492L19.9297 25.4688C21.0063 26.3501 22.3784 26.875 23.875 26.875C27.3198 26.875 30.125 24.0698 30.125 20.625C30.125 17.1802 27.3198 14.375 23.875 14.375ZM23.875 15.625C26.6436 15.625 28.875 17.8564 28.875 20.625C28.875 23.3936 26.6436 25.625 23.875 25.625C21.1064 25.625 18.875 23.3936 18.875 20.625C18.875 17.8564 21.1064 15.625 23.875 15.625Z" fill="#4B505F"/>
</svg>
