<svg width="32" height="32" viewBox="0 0 32 32" fill="none" xmlns="http://www.w3.org/2000/svg">
<g clip-path="url(#clip0_239_1858)">
<path d="M32.0003 13.3333H28.0003C27.9975 10.8588 27.0132 8.48652 25.2635 6.73679C23.5138 4.98706 21.1414 4.00282 18.6669 4V0C22.202 0.00388213 25.5911 1.40989 28.0907 3.90953C30.5904 6.40918 31.9964 9.79831 32.0003 13.3333ZM18.6669 6.66667V10.6667C19.3742 10.6667 20.0525 10.9476 20.5526 11.4477C21.0527 11.9478 21.3336 12.6261 21.3336 13.3333H25.3336C25.3315 11.5659 24.6284 9.87141 23.3786 8.62163C22.1289 7.37184 20.4344 6.66878 18.6669 6.66667ZM27.0203 29.6467L31.8803 24.7867L23.0256 15.9307L19.0669 19.8973C15.9967 18.4714 13.5335 16.0002 12.1176 12.9253L16.0696 8.97467L7.21361 0.12L2.35494 4.97867C1.60028 5.73589 1.00353 6.63545 0.599323 7.62515C0.195112 8.61485 -0.00851039 9.67498 0.00027248 10.744C0.00027248 20.2787 11.7216 32 21.2563 32C22.325 32.0088 23.3848 31.8053 24.3743 31.4013C25.3637 30.9973 26.2631 30.4009 27.0203 29.6467ZM10.4123 8.97467L7.38827 12L7.88027 13.2253C8.81394 15.7213 10.2735 17.9873 12.1599 19.8696C14.0464 21.7519 16.3156 23.2065 18.8136 24.1347L20.0243 24.596L23.0309 21.588L26.2309 24.788L24.1989 26.8213C23.8124 27.2023 23.3541 27.5028 22.8506 27.7054C22.347 27.9079 21.8083 28.0085 21.2656 28.0013C14.5989 28 4.00027 18.5787 4.00027 10.744C3.99356 10.2013 4.0945 9.66256 4.29727 9.15907C4.50004 8.65558 4.80061 8.19727 5.18161 7.81067L7.21361 5.776L10.4123 8.97467Z" fill="white" fill-opacity="0.7"/>
</g>
<defs>
<clipPath id="clip0_239_1858">
<rect width="32" height="32" fill="white"/>
</clipPath>
</defs>
</svg>
