<svg width="168" height="167" viewBox="0 0 168 167" fill="none" xmlns="http://www.w3.org/2000/svg">
<path d="M84.0002 160.738C41.4152 160.738 6.7627 126.085 6.7627 83.5002C6.7627 40.9152 41.4152 6.2627 84.0002 6.2627C126.585 6.2627 161.238 40.9152 161.238 83.5002C161.238 126.085 126.585 160.738 84.0002 160.738Z" fill="#9ACC6E"/>
<path d="M83.9998 8.3498C125.332 8.3498 159.15 42.1673 159.15 83.4998C159.15 124.832 125.332 158.65 83.9998 158.65C42.6673 158.65 8.8498 124.832 8.8498 83.4998C8.8498 42.1673 42.6673 8.3498 83.9998 8.3498ZM83.9998 4.1748C40.1623 4.1748 4.6748 39.6623 4.6748 83.4998C4.6748 127.337 40.1623 162.825 83.9998 162.825C127.837 162.825 163.325 127.337 163.325 83.4998C163.325 39.6623 127.837 4.1748 83.9998 4.1748Z" fill="#4E7525"/>
<path d="M47.2598 83.9175L71.4748 108.132L126.585 53.0225" stroke="white" stroke-width="16"/>
</svg>
