<svg width="19" height="18" viewBox="0 0 19 18" fill="none" xmlns="http://www.w3.org/2000/svg">
<path d="M15.5706 2.61562C13.8871 0.928125 11.6452 0 9.26258 0C4.34473 0 0.342941 4.00179 0.342941 8.91964C0.342941 10.4906 0.752762 12.0254 1.53223 13.3795L0.266602 18L4.99562 16.7585C6.2974 17.4696 7.76392 17.8433 9.25857 17.8433H9.26258C14.1764 17.8433 18.2666 13.8415 18.2666 8.92366C18.2666 6.54107 17.2541 4.30312 15.5706 2.61562ZM9.26258 16.3406C7.92865 16.3406 6.62285 15.983 5.4858 15.308L5.2166 15.1473L2.41214 15.8826L3.15946 13.1464L2.98267 12.8652C2.23937 11.6839 1.84964 10.3219 1.84964 8.91964C1.84964 4.83348 5.17642 1.5067 9.2666 1.5067C11.2474 1.5067 13.1077 2.27812 14.5059 3.68036C15.9041 5.08259 16.7639 6.94286 16.7599 8.92366C16.7599 13.0138 13.3487 16.3406 9.26258 16.3406ZM13.3287 10.7879C13.1077 10.6754 12.0108 10.1371 11.8059 10.0647C11.601 9.98839 11.4523 9.95223 11.3037 10.1772C11.155 10.4022 10.7291 10.9004 10.5965 11.0531C10.4679 11.2018 10.3354 11.2219 10.1144 11.1094C8.80455 10.4545 7.94473 9.94018 7.08089 8.45759C6.85187 8.06384 7.3099 8.09196 7.7358 7.24018C7.80812 7.09152 7.77196 6.96295 7.71571 6.85045C7.65946 6.73795 7.21348 5.64107 7.02866 5.19509C6.84785 4.76116 6.66303 4.82143 6.52642 4.81339C6.39785 4.80536 6.24919 4.80536 6.10053 4.80536C5.95187 4.80536 5.7108 4.86161 5.50589 5.08259C5.30098 5.30759 4.72642 5.84598 4.72642 6.94286C4.72642 8.03973 5.52598 9.10045 5.63446 9.24911C5.74696 9.39777 7.20544 11.6478 9.44339 12.6161C10.8577 13.2268 11.4121 13.279 12.1193 13.1746C12.5492 13.1103 13.4371 12.6362 13.622 12.1138C13.8068 11.5915 13.8068 11.1455 13.7505 11.0531C13.6983 10.9527 13.5496 10.8964 13.3287 10.7879Z" fill="black"/>
</svg>
