<svg width="24" height="25" viewBox="0 0 24 25" fill="none" xmlns="http://www.w3.org/2000/svg">
<path d="M9 2.02734C5.14585 2.02734 2 5.1732 2 9.02734C2 12.8815 5.14585 16.0273 9 16.0273C10.748 16.0273 12.345 15.3754 13.5742 14.3086L14 14.7344V16.0273L19.5859 21.6133C20.1379 22.1653 21.0339 22.1653 21.5859 21.6133C22.1379 21.0613 22.1379 20.1653 21.5859 19.6133L16 14.0273H14.707L14.2812 13.6016C15.348 12.3724 16 10.7753 16 9.02734C16 5.1732 12.8541 2.02734 9 2.02734ZM9 4.02734C11.7733 4.02734 14 6.25408 14 9.02734C14 11.8006 11.7733 14.0273 9 14.0273C6.22673 14.0273 4 11.8006 4 9.02734C4 6.25408 6.22673 4.02734 9 4.02734Z" fill="white"/>
</svg>
