<svg width="48" height="48" viewBox="0 0 48 48" fill="none" xmlns="http://www.w3.org/2000/svg">
<path d="M5.25 9C3.59325 9 2.25 10.3432 2.25 12V36C2.25 37.6567 3.59325 39 5.25 39H42.75C44.4067 39 45.75 37.6567 45.75 36V12C45.75 10.3432 44.4067 9 42.75 9H5.25ZM29.165 18.5625C30.2113 18.5625 31.0525 18.7898 31.7065 19.0283L31.229 21.2549C30.0133 20.6946 28.9398 20.7337 28.5513 20.7847C27.766 20.8867 27.4082 21.2878 27.3984 21.6636C27.3722 22.9018 31.2154 23.0547 31.2041 25.8252C31.1936 28.0077 29.3286 29.4155 26.4771 29.4155C25.2621 29.4043 24.0895 29.1492 23.4565 28.8574L23.9487 26.5576C24.5795 26.8524 25.3713 27.2422 26.7363 27.2212C27.5186 27.2092 28.3541 26.8986 28.3623 26.1943C28.3661 25.7338 28.0121 25.4037 26.9546 24.8892C25.9256 24.3874 24.5584 23.544 24.5771 22.0327C24.5921 19.9905 26.4808 18.5625 29.165 18.5625ZM7.2627 18.7544H11.8828C12.4708 18.7544 13.001 19.1457 13.1353 19.8237L14.2778 25.8984L17.105 18.7544H19.957L15.5566 29.2515H12.687L10.522 20.874C10.3907 20.358 10.2772 20.1701 9.87744 19.9526C9.22419 19.5971 8.14624 19.2653 7.19824 19.0591L7.2627 18.7544ZM21.1216 18.7544H23.8359L21.5903 29.2515H18.876L21.1216 18.7544ZM36.293 18.7544H38.6118L40.8032 29.2515H38.291L37.9614 27.6841H34.4795L33.9126 29.2515H31.0635L35.1372 19.5249C35.333 19.0584 35.7717 18.7544 36.293 18.7544ZM36.6914 21.5889L35.2603 25.5322H37.5132L36.6914 21.5889Z" fill="#0063BE"/>
</svg>
