<svg width="32" height="32" viewBox="0 0 32 32" fill="none" xmlns="http://www.w3.org/2000/svg">
<g clip-path="url(#clip0_239_1842)">
<path d="M24.6667 1.33398H7.33333C5.38906 1.3361 3.52503 2.1094 2.15022 3.48421C0.775414 4.85901 0.00211756 6.72305 0 8.66732L0 23.334C0.00211756 25.2783 0.775414 27.1423 2.15022 28.5171C3.52503 29.8919 5.38906 30.6652 7.33333 30.6673H24.6667C26.6109 30.6652 28.475 29.8919 29.8498 28.5171C31.2246 27.1423 31.9979 25.2783 32 23.334V8.66732C31.9979 6.72305 31.2246 4.85901 29.8498 3.48421C28.475 2.1094 26.6109 1.3361 24.6667 1.33398ZM24.6667 5.33398C25.4753 5.33668 26.2548 5.63605 26.8573 6.17532L18.1907 14.842C17.602 15.4042 16.8193 15.7179 16.0053 15.7179C15.1913 15.7179 14.4086 15.4042 13.82 14.842L5.15333 6.17532C5.75313 5.63848 6.5284 5.33928 7.33333 5.33398H24.6667ZM24.6667 26.6673H7.33333C6.44928 26.6673 5.60143 26.3161 4.97631 25.691C4.35119 25.0659 4 24.218 4 23.334V10.69L10.9853 17.6753C11.6437 18.3339 12.4253 18.8564 13.2857 19.2129C14.146 19.5693 15.0681 19.7528 15.9993 19.7528C16.9306 19.7528 17.8527 19.5693 18.713 19.2129C19.5733 18.8564 20.355 18.3339 21.0133 17.6753L28 10.69V23.334C28 24.218 27.6488 25.0659 27.0237 25.691C26.3986 26.3161 25.5507 26.6673 24.6667 26.6673Z" fill="white" fill-opacity="0.7"/>
</g>
<defs>
<clipPath id="clip0_239_1842">
<rect width="32" height="32" fill="white"/>
</clipPath>
</defs>
</svg>
