<svg width="32" height="32" viewBox="0 0 32 32" fill="none" xmlns="http://www.w3.org/2000/svg">
<g clip-path="url(#clip0_239_1872)">
<path d="M16 32C12.8355 32 9.74207 31.0616 7.11088 29.3035C4.4797 27.5454 2.42894 25.0466 1.21793 22.1229C0.00693258 19.1993 -0.309921 15.9823 0.307443 12.8786C0.924806 9.77487 2.44866 6.92394 4.6863 4.6863C6.92394 2.44866 9.77487 0.924806 12.8786 0.307443C15.9823 -0.309921 19.1993 0.00693258 22.1229 1.21793C25.0466 2.42894 27.5454 4.4797 29.3035 7.11088C31.0616 9.74207 32 12.8355 32 16C31.9954 20.2421 30.3082 24.3091 27.3087 27.3087C24.3091 30.3082 20.2421 31.9954 16 32ZM16 4.00001C13.6266 4.00001 11.3066 4.70379 9.33316 6.02237C7.35977 7.34095 5.8217 9.21509 4.91345 11.4078C4.0052 13.6005 3.76756 16.0133 4.23058 18.3411C4.69361 20.6689 5.8365 22.8071 7.51473 24.4853C9.19296 26.1635 11.3312 27.3064 13.6589 27.7694C15.9867 28.2325 18.3995 27.9948 20.5922 27.0866C22.7849 26.1783 24.6591 24.6402 25.9776 22.6669C27.2962 20.6935 28 18.3734 28 16C27.9965 12.8185 26.7311 9.7683 24.4814 7.51862C22.2317 5.26895 19.1815 4.00354 16 4.00001Z" fill="white" fill-opacity="0.7"/>
<path d="M11.2281 21.1953L9.10547 17.8059L14.0001 14.7406V8.36328H18.0001V16.9539L11.2281 21.1953Z" fill="white" fill-opacity="0.7"/>
</g>
<defs>
<clipPath id="clip0_239_1872">
<rect width="32" height="32" fill="white"/>
</clipPath>
</defs>
</svg>
