<svg width="64" height="64" viewBox="0 0 64 64" fill="none" xmlns="http://www.w3.org/2000/svg">
<rect y="0.000610352" width="64" height="64" rx="32" fill="#9ACC6E"/>
<path d="M35.7812 19.5944L35.1875 20.4069L31.1875 26.0006H27C25.6016 26.0006 24.6133 26.8365 23.6562 27.6569L23.3125 27.9694C22.5898 28.5748 20.418 30.3795 19 31.5631V34.1569C19.2344 33.9615 23.5156 30.403 24.5938 29.5006L24.9688 29.1881C25.8516 28.4303 26.3711 28.0006 27 28.0006H29.75L25.1875 34.4069L25 34.6881V36.9069L26.4688 36.0944C26.4688 36.0944 29.6562 34.3483 30.125 34.0944C31.1953 33.5162 31.8516 33.0006 32.8438 33.0006C33.4961 33.0006 34 33.5201 34 34.2819C34 34.7311 33.9023 34.899 33.7188 35.1256C33.5352 35.3522 33.2109 35.6178 32.75 35.9069C31.6641 36.5865 30.4688 37.7506 30.4688 37.7506L30.4062 37.8444L30.3438 37.9069C29.1836 39.5983 27.6914 41.0006 25.0312 41.0006H19V43.0006H25.0312C27.8242 43.0006 29.6523 41.5748 31.0312 40.0006L33.4062 41.8131L34.2188 42.4069L34.8125 41.5944L44.8125 27.5944L45.375 26.7819L44.5938 26.1881L36.5938 20.1881L35.7812 19.5944ZM36.2188 22.4381L42.625 27.2194L33.7812 39.5631L32.5312 38.6256C32.9492 38.2467 33.3516 37.8834 33.8125 37.5944C34.3164 37.2819 34.8438 36.942 35.2812 36.4069C35.7188 35.8717 36 35.1256 36 34.2819C36 34.1764 35.9766 34.0709 35.9688 33.9694C36.6484 33.8678 37.2266 33.5123 37.5938 32.9069C38.4102 31.6451 37.9219 29.7545 36.4688 28.6881C35.8516 28.2194 35.1641 28.0006 34.5 28.0006C33.6484 28.0006 32.8359 28.3834 32.375 29.0944C32 29.6647 31.918 30.36 32.0625 31.0631C30.7852 31.274 29.8711 31.9576 29.1562 32.3444L36.2188 22.4381ZM37.8438 25.5631C37.5195 25.5436 37.2305 25.6569 37.0625 25.8756C36.7305 26.317 36.9961 27.0631 37.6562 27.5631C38.3164 28.0631 39.1367 28.1295 39.4688 27.6881C39.8008 27.2467 39.5352 26.4694 38.875 25.9694C38.543 25.7194 38.168 25.5826 37.8438 25.5631ZM34.5 30.0006C34.7578 30.0006 35.0117 30.11 35.2812 30.3131C35.9453 30.8014 36.1211 31.5592 35.9375 31.8444H35.9062V31.8756C35.8789 31.9225 35.8242 31.9498 35.75 31.9694L34.1562 31.0319C33.9844 30.6764 33.9609 30.3131 34.0625 30.1569C34.1641 30.0045 34.4062 30.0006 34.5 30.0006Z" fill="white"/>
</svg>
