<svg width="17" height="17" viewBox="0 0 17 17" fill="none" xmlns="http://www.w3.org/2000/svg">
<path d="M12.5605 2.01959C12.4281 2.02166 12.3018 2.07624 12.2095 2.17133C12.1172 2.26642 12.0665 2.39426 12.0684 2.52675V3.56191C11.007 2.60914 9.6048 2.02675 8.06836 2.02675C4.76049 2.02675 2.06836 4.71889 2.06836 8.02675C2.06836 11.3346 4.76049 14.0268 8.06836 14.0268C11.3762 14.0268 14.0684 11.3346 14.0684 8.02675C14.0684 7.7095 14.0366 7.4071 13.9928 7.11855C13.985 7.05196 13.9638 6.98764 13.9306 6.9294C13.8974 6.87116 13.8528 6.8202 13.7994 6.77954C13.7461 6.73889 13.6852 6.70937 13.6202 6.69275C13.5553 6.67613 13.4876 6.67274 13.4213 6.68278C13.355 6.69282 13.2914 6.7161 13.2343 6.75122C13.1772 6.78634 13.1277 6.83258 13.0889 6.88721C13.05 6.94183 13.0225 7.00372 13.008 7.06918C12.9935 7.13465 12.9923 7.20236 13.0046 7.26829C13.0434 7.52441 13.0684 7.77601 13.0684 8.02675C13.0684 10.7942 10.8358 13.0268 8.06836 13.0268C5.30089 13.0268 3.06836 10.7942 3.06836 8.02675C3.06836 5.25929 5.30089 3.02675 8.06836 3.02675C9.37978 3.02675 10.5618 3.53592 11.4518 4.36009H10.235C10.1688 4.35915 10.103 4.37139 10.0415 4.3961C9.98002 4.4208 9.92406 4.45748 9.87687 4.50401C9.82969 4.55053 9.79222 4.60597 9.76665 4.66709C9.74107 4.72822 9.7279 4.79382 9.7279 4.86009C9.7279 4.92635 9.74107 4.99195 9.76665 5.05308C9.79222 5.11421 9.82969 5.16964 9.87687 5.21617C9.92406 5.26269 9.98002 5.29937 10.0415 5.32408C10.103 5.34878 10.1688 5.36102 10.235 5.36009H12.5684C12.701 5.36007 12.8281 5.30739 12.9219 5.21363C13.0157 5.11986 13.0683 4.99269 13.0684 4.86009V2.52675C13.0693 2.45983 13.0568 2.3934 13.0316 2.33139C13.0065 2.26938 12.9691 2.21306 12.9217 2.16577C12.8744 2.11847 12.818 2.08116 12.756 2.05605C12.6939 2.03095 12.6275 2.01855 12.5605 2.01959Z" fill="#98A5E7"/>
</svg>
