<svg width="19" height="18" viewBox="0 0 19 18" fill="none" xmlns="http://www.w3.org/2000/svg">
<path d="M18.8032 9C18.8032 13.9718 14.775 18 9.80322 18C8.87419 18 7.98145 17.8585 7.13951 17.5972C7.50605 16.9984 8.05403 16.0185 8.25725 15.2383C8.36613 14.8173 8.81613 13.0972 8.81613 13.0972C9.11008 13.656 9.96653 14.1315 10.8774 14.1315C13.5919 14.1315 15.548 11.6347 15.548 8.53185C15.548 5.55968 13.1202 3.33508 9.99919 3.33508C6.11613 3.33508 4.05121 5.94073 4.05121 8.78226C4.05121 10.1032 4.75524 11.7472 5.87661 12.2698C6.04717 12.3496 6.1379 12.3133 6.17782 12.15C6.20685 12.0266 6.35927 11.4133 6.42822 11.1302C6.45 11.0395 6.43911 10.9597 6.36653 10.8726C6 10.419 5.70242 9.59153 5.70242 8.81855C5.70242 6.83347 7.20484 4.91371 9.76693 4.91371C11.977 4.91371 13.5266 6.41976 13.5266 8.5754C13.5266 11.0105 12.2964 12.698 10.696 12.698C9.81411 12.698 9.15 11.9685 9.36411 11.0722C9.61814 10.0016 10.1081 8.84758 10.1081 8.0746C10.1081 7.38508 9.7379 6.80806 8.96854 6.80806C8.06492 6.80806 7.33911 7.74073 7.33911 8.99274C7.33911 9.79113 7.60766 10.3282 7.60766 10.3282C7.60766 10.3282 6.71854 14.0952 6.55524 14.7992C6.37379 15.5758 6.44637 16.6718 6.52258 17.3831C3.17661 16.073 0.803223 12.8141 0.803223 9C0.803223 4.02823 4.83145 0 9.80322 0C14.775 0 18.8032 4.02823 18.8032 9Z" fill="black"/>
</svg>
