<svg width="32" height="32" viewBox="0 0 32 32" fill="none" xmlns="http://www.w3.org/2000/svg">
<g clip-path="url(#clip0_239_1864)">
<path d="M32 13.2319V24.6666C31.9979 26.6109 31.2246 28.4749 29.8498 29.8497C28.475 31.2245 26.6109 31.9978 24.6667 31.9999C24.1362 31.9999 23.6275 31.7892 23.2525 31.4142C22.8774 31.0391 22.6667 30.5304 22.6667 29.9999C22.6667 29.4695 22.8774 28.9608 23.2525 28.5857C23.6275 28.2107 24.1362 27.9999 24.6667 27.9999C25.5507 27.9999 26.3986 27.6488 27.0237 27.0236C27.6488 26.3985 28 25.5507 28 24.6666V13.2319C28.0004 12.6864 27.8669 12.1491 27.6111 11.6672C27.3554 11.1852 26.9853 10.7735 26.5333 10.4679L17.7333 4.53328C17.2235 4.18665 16.6212 4.0013 16.0047 4.0013C15.3881 4.0013 14.7859 4.18665 14.276 4.53328L5.46667 10.4679C5.01468 10.7735 4.64458 11.1852 4.38886 11.6672C4.13314 12.1491 3.99961 12.6864 4 13.2319V24.6666C4 25.5507 4.35119 26.3985 4.97631 27.0236C5.60143 27.6488 6.44928 27.9999 7.33333 27.9999C7.86377 27.9999 8.37247 28.2107 8.74755 28.5857C9.12262 28.9608 9.33333 29.4695 9.33333 29.9999C9.33333 30.5304 9.12262 31.0391 8.74755 31.4142C8.37247 31.7892 7.86377 31.9999 7.33333 31.9999C5.38906 31.9978 3.52503 31.2245 2.15022 29.8497C0.775415 28.4749 0.00211775 26.6109 1.93771e-07 24.6666V13.2319C-0.000275741 12.0315 0.294156 10.8493 0.857446 9.78923C1.42074 8.72914 2.23566 7.82354 3.23067 7.15194L12.0333 1.21328C13.2032 0.41764 14.5852 -0.0078125 16 -0.0078125C17.4148 -0.0078125 18.7968 0.41764 19.9667 1.21328L28.7667 7.15194C29.7622 7.82324 30.5776 8.72871 31.1414 9.78882C31.7051 10.8489 32 12.0313 32 13.2319ZM25.3333 19.9999C25.3369 21.226 25.0971 22.4405 24.628 23.5732C24.1588 24.7059 23.4695 25.7342 22.6 26.5986L17.8093 31.2853C17.3274 31.7602 16.6779 32.0264 16.0013 32.0264C15.3247 32.0264 14.6753 31.7602 14.1933 31.2853L9.416 26.6146C8.32743 25.5312 7.52304 24.1959 7.07417 22.7271C6.62531 21.2583 6.54584 19.7015 6.84281 18.1946C7.13979 16.6877 7.80402 15.2775 8.77662 14.0888C9.74921 12.9002 11.0001 11.9699 12.4184 11.3806C13.8366 10.7912 15.3784 10.5609 16.907 10.7102C18.4355 10.8594 19.9036 11.3836 21.1811 12.2361C22.4586 13.0887 23.5059 14.2433 24.2302 15.5977C24.9545 16.952 25.3334 18.4641 25.3333 19.9999ZM21.3333 19.9999C21.3333 19.1229 21.117 18.2594 20.7036 17.486C20.2901 16.7125 19.6923 16.053 18.9631 15.5657C18.2339 15.0784 17.3958 14.7785 16.523 14.6925C15.6503 14.6065 14.7697 14.7371 13.9594 15.0726C13.1491 15.4082 12.4341 15.9384 11.8777 16.6162C11.3212 17.2941 10.9405 18.0988 10.7693 18.9589C10.5981 19.8191 10.6416 20.7081 10.8961 21.5474C11.1505 22.3867 11.608 23.1503 12.228 23.7706L16 27.4666L19.7867 23.7613C20.2801 23.2676 20.6709 22.681 20.9364 22.0354C21.2018 21.3898 21.3368 20.698 21.3333 19.9999ZM16 17.3333C15.4726 17.3333 14.957 17.4897 14.5185 17.7827C14.0799 18.0757 13.7382 18.4922 13.5363 18.9795C13.3345 19.4667 13.2817 20.0029 13.3846 20.5202C13.4875 21.0375 13.7414 21.5126 14.1144 21.8856C14.4873 22.2585 14.9625 22.5125 15.4798 22.6154C15.997 22.7183 16.5332 22.6655 17.0205 22.4636C17.5078 22.2618 17.9242 21.92 18.2173 21.4815C18.5103 21.0429 18.6667 20.5274 18.6667 19.9999C18.6667 19.2927 18.3857 18.6144 17.8856 18.1143C17.3855 17.6142 16.7072 17.3333 16 17.3333Z" fill="white" fill-opacity="0.7"/>
</g>
<defs>
<clipPath id="clip0_239_1864">
<rect width="32" height="32" fill="white"/>
</clipPath>
</defs>
</svg>
