<svg width="26" height="26" viewBox="0 0 26 26" fill="none" xmlns="http://www.w3.org/2000/svg">
<path d="M13.3332 3.05293C16.7152 3.05293 17.1163 3.06543 18.4526 3.12585C21.8853 3.28001 23.4887 4.8873 23.6449 8.2498C23.7062 9.56751 23.7178 9.96335 23.7178 13.3008C23.7178 16.6394 23.7051 17.0342 23.6449 18.3519C23.4876 21.7113 21.8885 23.3217 18.4526 23.4758C17.1163 23.5363 16.7173 23.5488 13.3332 23.5488C9.95119 23.5488 9.55007 23.5363 8.21479 23.4758C4.77368 23.3206 3.17873 21.7061 3.02251 18.3508C2.96129 17.0331 2.94862 16.6383 2.94862 13.2998C2.94862 9.9623 2.96234 9.56751 3.02251 8.24876C3.17979 4.8873 4.77895 3.27897 8.21479 3.1248C9.55113 3.06543 9.95119 3.05293 13.3332 3.05293ZM13.3332 0.799805C9.89313 0.799805 9.46246 0.814388 8.11135 0.874805C3.51123 1.08314 0.954671 3.60189 0.74356 8.14564C0.681282 9.48001 0.666504 9.90501 0.666504 13.2998C0.666504 16.6946 0.681282 17.1206 0.742504 18.454C0.953615 22.9936 3.50595 25.5165 8.11029 25.7248C9.46246 25.7852 9.89313 25.7998 13.3332 25.7998C16.7733 25.7998 17.205 25.7852 18.5561 25.7248C23.152 25.5165 25.7149 22.9977 25.9228 18.454C25.9851 17.1206 25.9999 16.6946 25.9999 13.2998C25.9999 9.90501 25.9851 9.48001 25.9239 8.14668C25.717 3.61126 23.1615 1.08418 18.5571 0.875846C17.205 0.814388 16.7733 0.799805 13.3332 0.799805V0.799805ZM13.3332 6.88105C9.74113 6.88105 6.82885 9.75501 6.82885 13.2998C6.82885 16.8446 9.74113 19.7196 13.3332 19.7196C16.9253 19.7196 19.8375 16.8456 19.8375 13.2998C19.8375 9.75501 16.9253 6.88105 13.3332 6.88105ZM13.3332 17.4665C11.0015 17.4665 9.11096 15.6019 9.11096 13.2998C9.11096 10.9988 11.0015 9.13314 13.3332 9.13314C15.6649 9.13314 17.5554 10.9988 17.5554 13.2998C17.5554 15.6019 15.6649 17.4665 13.3332 17.4665ZM20.0951 5.12793C19.2549 5.12793 18.574 5.7998 18.574 6.62793C18.574 7.45605 19.2549 8.12793 20.0951 8.12793C20.9343 8.12793 21.614 7.45605 21.614 6.62793C21.614 5.7998 20.9343 5.12793 20.0951 5.12793Z" fill="white"/>
</svg>
