<svg width="29" height="23" viewBox="0 0 29 23" fill="none" xmlns="http://www.w3.org/2000/svg">
<path d="M28.0319 2.78922C27.592 2.97754 27.1398 3.13649 26.6777 3.26553C27.2248 2.66828 27.6419 1.96554 27.8965 1.19653C27.9536 1.02415 27.8944 0.835476 27.7477 0.72274C27.6011 0.609917 27.3974 0.596403 27.236 0.688736C26.2546 1.25058 25.1959 1.65436 24.0857 1.89047C22.9675 0.835651 21.4486 0.235352 19.8784 0.235352C16.5641 0.235352 13.8676 2.83822 13.8676 6.03754C13.8676 6.28952 13.8841 6.5401 13.9168 6.7872C9.80398 6.43861 5.98036 4.48723 3.3547 1.37814C3.26112 1.26732 3.11697 1.2076 2.96938 1.21902C2.8217 1.23018 2.68902 1.31057 2.61441 1.43412C2.08187 2.31621 1.80034 3.32508 1.80034 4.35156C1.80034 5.74964 2.31743 7.07614 3.23086 8.11265C2.95312 8.01979 2.6836 7.90374 2.42636 7.7659C2.28826 7.6917 2.11972 7.69283 1.98252 7.76878C1.84523 7.84472 1.75915 7.98439 1.75554 8.13706C1.75491 8.16278 1.75491 8.1885 1.75491 8.21457C1.75491 10.3015 2.91844 12.1803 4.69734 13.2043C4.54451 13.1896 4.39178 13.1682 4.24003 13.1403C4.0836 13.1114 3.92273 13.1643 3.81724 13.2795C3.71156 13.3946 3.6766 13.555 3.72529 13.7015C4.38374 15.6859 6.079 17.1456 8.12841 17.5906C6.42863 18.6183 4.48481 19.1566 2.44425 19.1566C2.01847 19.1566 1.59025 19.1324 1.17115 19.0846C0.962961 19.0607 0.76389 19.1793 0.692987 19.3705C0.622084 19.5617 0.697233 19.7748 0.874355 19.8844C3.49578 21.5069 6.5269 22.3645 9.63986 22.3645C15.7596 22.3645 19.5879 19.5788 21.7217 17.2419C24.3826 14.3279 25.9087 10.4709 25.9087 6.65999C25.9087 6.50078 25.9062 6.34 25.9011 6.17975C26.9509 5.41623 27.8548 4.4922 28.5903 3.43014C28.702 3.26884 28.6899 3.05567 28.5605 2.90718C28.4312 2.75861 28.2158 2.71057 28.0319 2.78922Z" fill="white"/>
</svg>
